<?xml version="1.0" encoding="UTF-8"?> <svg xmlns="http://www.w3.org/2000/svg" id="a" viewBox="0 0 1200 1000"><defs><style>.b{fill:#7efb6e;}.c{fill:#1ec3a7;}</style></defs><g><path class="c" d="M139.2,954.39c-14.85,0-28.75-2.8-41.68-8.39s-24.21-13.39-33.84-23.39c-9.63-9.99-17.15-21.69-22.56-35.08-5.41-13.39-8.12-27.88-8.12-43.47s2.7-29.75,8.12-43.06c5.41-13.3,12.93-24.94,22.56-34.94,9.63-9.99,20.86-17.83,33.7-23.52,12.84-5.68,26.78-8.53,41.82-8.53,14.12,0,26.27,1.83,36.46,5.5,10.17,3.67,20.4,9.72,30.67,18.16,1.47,1.1,2.62,2.25,3.44,3.44,.82,1.19,1.37,2.39,1.65,3.58,.27,1.19,.41,2.62,.41,4.26,0,3.49-1.24,6.38-3.71,8.67-2.48,2.3-5.46,3.58-8.94,3.85-3.48,.28-6.88-.87-10.18-3.44-6.79-5.87-13.8-10.36-21.05-13.48-7.25-3.12-16.83-4.68-28.75-4.68-10.82,0-21,2.2-30.54,6.6-9.54,4.41-17.93,10.46-25.17,18.16-7.25,7.7-12.89,16.65-16.92,26.83-4.03,10.18-6.05,21.05-6.05,32.6s2.02,22.7,6.05,32.88c4.03,10.18,9.68,19.12,16.92,26.83,7.25,7.7,15.64,13.71,25.17,18.02,9.54,4.31,19.72,6.47,30.54,6.47,9.36,0,18.21-1.6,26.55-4.81,8.35-3.21,16.37-7.66,24.08-13.35,3.3-2.38,6.55-3.44,9.77-3.16,3.21,.27,5.92,1.56,8.12,3.85,2.2,2.3,3.3,5.46,3.3,9.49,0,1.84-.37,3.63-1.1,5.37-.74,1.75-1.84,3.35-3.3,4.81-9.91,7.89-20.5,13.85-31.78,17.88-11.28,4.03-23.16,6.06-35.63,6.06Z"></path><path class="c" d="M252.39,951.64c-7.6,0-13.76-6.16-13.76-13.76v-187.37c0-4.03,1.28-7.33,3.85-9.9,2.57-2.57,5.87-3.85,9.91-3.85s7.33,1.29,9.91,3.85c2.56,2.57,3.85,5.87,3.85,9.9v187.37c0,7.6-6.16,13.76-13.76,13.76h0Z"></path><path class="c" d="M310.39,776.65c-4.95,0-9.22-1.79-12.8-5.37-3.58-3.58-5.36-7.84-5.36-12.79s1.78-9.22,5.36-12.8c3.58-3.58,7.85-5.37,12.8-5.37s9.21,1.79,12.79,5.37c3.58,3.58,5.37,7.84,5.37,12.8s-1.79,9.21-5.37,12.79c-3.58,3.58-7.84,5.37-12.79,5.37Zm0,174.98c-4.03,0-7.39-1.33-10.04-3.99-2.66-2.66-3.99-6-3.99-10.04v-122.43c0-4.22,1.33-7.61,3.99-10.18,2.66-2.57,6.01-3.85,10.04-3.85s7.61,1.29,10.18,3.85c2.57,2.57,3.85,5.96,3.85,10.18v122.43c0,4.04-1.29,7.39-3.85,10.04-2.57,2.66-5.96,3.99-10.18,3.99Z"></path><path class="c" d="M560.5,826.87c-4.49-8.9-10.78-15.64-18.84-20.22-8.07-4.59-17.33-6.88-27.79-6.88-11.92,0-22.52,2.57-31.78,7.7-6.54,3.62-11.99,8.29-16.48,13.88-4.12-6.2-9.29-11.12-15.58-14.7-8.07-4.59-17.33-6.88-27.79-6.88s-20.45,2.57-28.89,7.7c-3.57,2.17-6.74,4.78-9.65,7.66-.07-4.06-1.33-7.36-3.83-9.86-2.57-2.56-5.96-3.85-10.18-3.85s-7.39,1.29-10.04,3.85c-2.67,2.57-4,5.96-4,10.18v122.44c0,4.03,1.33,7.39,4,10.04,2.65,2.66,6,3.99,10.04,3.99s7.61-1.33,10.18-3.99c2.57-2.66,3.85-6.01,3.85-10.04v-77.59c0-10.27,3.12-18.71,9.36-25.31,6.23-6.6,14.12-9.9,23.66-9.9s16.6,2.8,22.28,8.39c5.69,5.59,8.53,14.17,8.53,25.72v78.69c0,4.03,1.33,7.39,3.99,10.04,2.66,2.66,6,3.99,10.04,3.99s7.61-1.33,10.18-3.99c2.56-2.66,3.85-6.01,3.85-10.04v-77.59c0-10.27,3.07-18.71,9.22-25.31,6.14-6.6,13.99-9.9,23.52-9.9s16.6,2.8,22.28,8.39c5.68,5.59,8.53,14.17,8.53,25.72v78.69c0,4.03,1.34,7.39,4,10.04,2.65,2.66,6,3.99,10.04,3.99s7.61-1.33,10.18-3.99c2.56-2.66,3.85-6.01,3.85-10.04v-78.69c0-12.65-2.25-23.43-6.74-32.33Z"></path><path class="c" d="M826.18,927.98c-2.3-2.56-5.09-3.85-8.4-3.85h-9.35c-5.87,0-10.82-2.48-14.86-7.43-4.03-4.95-6.05-11.1-6.05-18.43v-67.96h23.38c3.85,0,6.97-1.1,9.36-3.3,2.38-2.2,3.58-4.96,3.58-8.25,0-3.67-1.19-6.6-3.58-8.81-2.39-2.2-5.5-3.3-9.36-3.3h-23.38v-39.62c0-4.03-1.29-7.33-3.85-9.91-2.57-2.56-5.88-3.85-9.91-3.85s-7.34,1.29-9.91,3.85c-2.57,2.57-3.85,5.88-3.85,9.91v39.62h-12.66c-3.85,0-6.97,1.1-9.36,3.3-2.38,2.2-3.58,5.14-3.58,8.81,0,3.3,1.19,6.05,3.58,8.25,2.39,2.2,5.51,3.3,9.36,3.3h12.66v67.96c0,10.09,2.11,19.17,6.32,27.24,4.22,8.07,10,14.44,17.34,19.12,7.33,4.68,15.58,7.02,24.76,7.02h4.96c4.77,0,8.66-1.28,11.69-3.85,3.03-2.57,4.54-5.87,4.54-9.91s-1.15-7.33-3.44-9.91Z"></path><path class="c" d="M860.18,776.65c-4.95,0-9.21-1.79-12.79-5.37-3.58-3.58-5.37-7.84-5.37-12.79s1.79-9.22,5.37-12.8c3.58-3.58,7.84-5.37,12.79-5.37s9.22,1.79,12.8,5.37c3.58,3.58,5.36,7.84,5.36,12.8s-1.78,9.21-5.36,12.79c-3.58,3.58-7.85,5.37-12.8,5.37Zm0,174.98c-4.03,0-7.39-1.33-10.04-3.99-2.66-2.66-4-6-4-10.04v-122.43c0-4.22,1.34-7.61,4-10.18,2.65-2.57,6-3.85,10.04-3.85s7.61,1.29,10.18,3.85c2.56,2.57,3.85,5.96,3.85,10.18v122.43c0,4.04-1.29,7.39-3.85,10.04-2.57,2.66-5.96,3.99-10.18,3.99Z"></path><path class="c" d="M959.39,952.74c-12.84,0-24.72-1.97-35.63-5.92-10.92-3.94-19.4-8.94-25.45-14.99-2.75-2.93-3.9-6.28-3.44-10.04,.46-3.76,2.25-6.83,5.37-9.22,3.66-2.93,7.29-4.17,10.87-3.71,3.58,.46,6.65,2.07,9.22,4.81,3.11,3.49,8.11,6.74,14.99,9.77,6.88,3.03,14.54,4.54,22.98,4.54,10.64,0,18.76-1.74,24.35-5.22,5.59-3.48,8.48-7.98,8.66-13.48,.19-5.5-2.43-10.27-7.84-14.31-5.42-4.03-15.27-7.33-29.58-9.91-18.53-3.66-31.97-9.17-40.31-16.5-8.35-7.34-12.52-16.32-12.52-26.97,0-9.35,2.75-17.1,8.25-23.25,5.5-6.14,12.56-10.73,21.18-13.76,8.62-3.03,17.61-4.54,26.97-4.54,12.1,0,22.83,1.93,32.19,5.78,9.36,3.85,16.78,9.18,22.28,15.96,2.57,2.94,3.76,6.01,3.58,9.21-.18,3.21-1.74,5.92-4.67,8.12-2.94,2.02-6.42,2.66-10.46,1.92-4.03-.73-7.43-2.38-10.18-4.95-4.58-4.4-9.54-7.43-14.85-9.08-5.32-1.65-11.47-2.48-18.43-2.48-8.07,0-14.91,1.37-20.5,4.13-5.59,2.75-8.39,6.79-8.39,12.1,0,3.3,.87,6.29,2.61,8.94,1.74,2.66,5.18,5.05,10.32,7.15,5.14,2.11,12.66,4.18,22.56,6.19,13.76,2.75,24.63,6.24,32.6,10.46,7.98,4.22,13.71,9.13,17.2,14.72,3.48,5.59,5.22,12.06,5.22,19.39,0,8.44-2.25,16.05-6.74,22.83-4.5,6.79-11.1,12.2-19.81,16.24-8.71,4.03-19.58,6.05-32.6,6.05Z"></path><path class="c" d="M1165.86,840.72c-.76-3.96-2.06-7.66-3.84-10.99-4.69-8.61-12.46-15.61-23.11-20.8-10.57-5.15-24.29-7.75-40.77-7.75-4.55,0-9.17,.21-13.74,.6-4.56,.4-8.96,.98-13.08,1.73-4.12,.75-8.09,1.66-11.79,2.71-.95,.27-2.11,.65-3.33,1.07-4.55,1.58-7.57,5.91-7.57,10.72h0c0,7.47,7.08,12.92,14.3,11,3.51-.94,6.94-1.79,9.3-2.22,7.04-1.31,14.67-1.98,22.68-1.98,10.66,0,19.2,1.52,25.37,4.5,6.11,2.95,10.6,6.7,13.33,11.11,1.25,2.08,2.15,4.54,2.67,7.29,.54,2.83,.82,6.16,.82,9.91v7.58c-5.21-1.57-11.12-2.91-17.61-4-7.19-1.2-15.1-1.86-23.55-1.95-8.96,0-17.26,1.07-24.69,3.19-7.47,2.13-13.98,5.22-19.34,9.19-5.4,4.01-9.67,8.96-12.66,14.72-3.01,5.78-4.53,12.4-4.53,19.69s1.37,14.06,4.07,19.91c2.7,5.87,6.55,10.9,11.43,14.95,4.86,4.05,10.72,7.16,17.43,9.25,6.65,2.07,14.05,3.12,22.01,3.12,5.87,0,11.48-.56,16.68-1.67,5.19-1.11,10.03-2.62,14.42-4.49,4.39-1.87,8.33-4.02,11.71-6.42,2.49-1.76,4.69-3.56,6.56-5.37l1.02,7.38c.93,6.7,6.66,11.69,13.42,11.69h0c7.48,0,13.55-6.07,13.55-13.55v-87.23c0-4.64-.38-8.98-1.14-12.89Zm-28.77,46.53v25.98c-1.21,1.02-2.91,2.35-5.11,4-2.55,1.9-5.71,3.85-9.4,5.79-3.65,1.92-7.89,3.6-12.6,4.99-4.64,1.38-9.76,2.08-15.21,2.08-4.11,0-8.02-.5-11.61-1.49-3.54-.97-6.63-2.47-9.19-4.44-2.53-1.95-4.54-4.46-5.99-7.46-1.45-3.01-2.19-6.59-2.19-10.66,0-8.05,2.84-13.83,8.66-17.66,5.99-3.94,14.47-5.94,25.19-5.94,7.86,.1,15.16,.69,21.71,1.76,5.96,.98,11.25,2.01,15.74,3.06Z"></path><path class="c" d="M717.61,840.72c-.76-3.96-2.06-7.66-3.84-10.99-4.69-8.61-12.46-15.61-23.11-20.8-10.57-5.15-24.29-7.75-40.77-7.75-4.55,0-9.17,.21-13.74,.6-4.56,.4-8.96,.98-13.08,1.73-4.12,.75-8.09,1.66-11.79,2.71-.95,.27-2.11,.65-3.33,1.07-4.55,1.58-7.57,5.91-7.57,10.72h0c0,7.47,7.08,12.92,14.3,11,3.51-.94,6.94-1.79,9.3-2.22,7.04-1.31,14.67-1.98,22.68-1.98,10.66,0,19.2,1.52,25.37,4.5,6.11,2.95,10.6,6.7,13.33,11.11,1.25,2.08,2.15,4.54,2.67,7.29,.54,2.83,.82,6.16,.82,9.91v7.58c-5.21-1.57-11.12-2.91-17.61-4-7.19-1.2-15.1-1.86-23.55-1.95-8.96,0-17.26,1.07-24.69,3.19-7.47,2.13-13.98,5.22-19.34,9.19-5.4,4.01-9.67,8.96-12.66,14.72-3.01,5.78-4.53,12.4-4.53,19.69s1.37,14.06,4.07,19.91c2.7,5.87,6.55,10.9,11.43,14.95,4.86,4.05,10.72,7.16,17.43,9.25,6.65,2.07,14.05,3.12,22.01,3.12,5.87,0,11.48-.56,16.68-1.67,5.19-1.11,10.03-2.62,14.42-4.49,4.39-1.87,8.33-4.02,11.71-6.42,2.49-1.76,4.69-3.56,6.56-5.37l1.02,7.38c.93,6.7,6.66,11.69,13.42,11.69h0c7.48,0,13.55-6.07,13.55-13.55v-87.23c0-4.64-.38-8.98-1.14-12.89Zm-28.77,46.53v25.98c-1.21,1.02-2.91,2.35-5.11,4-2.55,1.9-5.71,3.85-9.4,5.79-3.65,1.92-7.89,3.6-12.6,4.99-4.64,1.38-9.76,2.08-15.21,2.08-4.11,0-8.02-.5-11.61-1.49-3.54-.97-6.63-2.47-9.19-4.44-2.53-1.95-4.54-4.46-5.99-7.46-1.45-3.01-2.19-6.59-2.19-10.66,0-8.05,2.84-13.83,8.66-17.66,5.99-3.94,14.47-5.94,25.19-5.94,7.86,.1,15.16,.69,21.71,1.76,5.96,.98,11.25,2.01,15.74,3.06Z"></path></g><g><g><path class="c" d="M564.64,455.04l-3.33,1.18c-1.12,.35-2.28,.59-3.42,.89l-6.86,1.69-6.99,1.03c-1.17,.14-2.32,.41-3.5,.45l-3.53,.17c-9.42,.78-18.85-.43-28.09-2.17-9.21-2.11-18.18-5.59-26.18-10.68-16.18-9.94-28.55-25.68-34.93-43.53l4-1.4c7.69,16.37,20.28,29.89,35.59,37.5,7.51,3.99,15.67,6.45,23.86,7.67,8.4,.9,16.86,1.37,25.07,.01l3.07-.38c1.02-.11,2.02-.44,3.03-.64l6-1.36,4.82-1.58c-17.09-14.42-33.7-29.42-49.77-45.02-33.92-32.94-65.31-68.33-93.97-105.74-11.31,12.2-20.13,26.52-25.63,41.98-2.43,6.81-4.41,13.78-5.71,20.92-1.27,7.43-2.38,15.07-2.61,22.65-.31,3.79-.12,7.59-.2,11.38,.25,3.78,.23,7.57,.71,11.33,.59,7.54,1.97,14.99,3.64,22.35,1.64,7.37,3.98,14.56,6.56,21.64,2.69,7.05,5.92,13.87,9.45,20.52,3.71,6.56,7.71,12.95,12.2,18.99,4.56,5.97,9.34,11.79,14.63,17.1,20.85,21.61,47.6,36.93,76.52,44.29,3.68,.8,7.16,1.81,11.11,2.41,3.85,.7,7.69,1.47,11.58,1.88l5.81,.77,5.84,.47c1.95,.13,3.89,.36,5.84,.43l5.85,.16c15.59,.34,31.2-.97,46.51-3.96,24.02-4.73,47.34-13.61,68.39-26.3-32.57-20.62-63.94-43.19-93.9-67.59-.49,.17-.97,.35-1.46,.51Z"></path><path class="c" d="M600.67,593.13c-37.36,7.22-76.1,5.68-112.77-3.87-36.71-9.95-70.39-30.31-96.1-58.02-6.52-6.85-12.39-14.27-17.93-21.9-5.47-7.7-10.32-15.8-14.77-24.12-4.27-8.41-8.11-17.04-11.28-25.91-3.05-8.91-5.77-17.95-7.59-27.2-1.83-9.23-3.25-18.57-3.75-27.97-.43-4.69-.33-9.4-.47-14.1,.2-4.7,.14-9.41,.63-14.09,.59-9.39,2.16-18.68,4.03-27.89,1.94-9.23,4.85-18.24,8.4-26.97,8.68-21.55,22.29-40.94,39.22-56.72-44.42-62.64-81.31-130.44-109.66-201.65-37.93,62.04-59.85,134.93-59.85,212.97,0,225.93,183.15,409.07,409.07,409.07,83.65,0,161.4-25.15,226.19-68.24-51.95-18.39-102.3-41.28-150.39-68.3-30.47,22.5-66.03,37.74-102.99,44.91Z"></path></g><g><path class="b" d="M423.57,239.33c16.66-8.67,34.82-14.38,53.4-16.87,18.59-2.58,37.58-1.6,55.89,2.32,18.35,4.03,35.8,12.1,50.74,23.46,14.95,11.37,27.31,26.05,36.16,42.58,17.62,33.05,20.64,74.08,5.57,108.7l-3.07,6.34c-.48,1.08-1.08,2.08-1.71,3.08l-1.84,3c-2.29,4.12-5.36,7.71-8.15,11.49-1.51,1.79-3.17,3.47-4.75,5.21l-2.4,2.58-2.63,2.35c-1.77,1.54-3.47,3.18-5.31,4.64l-2.82,2.06c29.28,23.25,59.99,44.76,92,64.42,21.63-17.71,39.9-39.52,53.13-64.26,7.4-13.84,13.32-28.55,17.41-43.86,.9-3.9,1.94-7.59,2.77-11.67l2.4-12.41c1.28-8.35,2.87-16.68,3.72-25.17,1.13-9.21,1.89-18.49,2.36-27.83C663.88,166.87,495.66,62.09,302.22,45.61c27.93,72.1,64.32,139.68,107.99,201.58,4.33-2.83,8.78-5.47,13.36-7.86Z"></path><path class="b" d="M579.73,429.84c.31-.23,.62-.46,.93-.7l4.56-3.83c1.46-1.34,2.78-2.83,4.18-4.21l2.07-2.1,1.84-2.31c1.21-1.55,2.5-3.02,3.65-4.59,2.07-3.33,4.43-6.41,6.04-9.95l1.34-2.56c.47-.84,.91-1.69,1.22-2.61l2.13-5.34,.53-1.33,.39-1.39,.8-2.75c.5-1.84,1.25-3.59,1.49-5.5l1.09-5.59c.42-1.82,.51-3.9,.79-5.82,.81-7.85,.77-15.72-.16-23.44-1.84-15.43-7.01-30.26-14.99-43.21-8.07-12.86-18.45-24.11-30.7-32.47-12.24-8.35-26.08-13.89-40.44-16.29-15.07-2.44-30.47-2.49-45.2,.32-14.75,2.66-28.99,7.71-41.88,15.09-3.05,1.75-6.01,3.64-8.89,5.63,43.64,57.28,93.72,109.25,149.2,154.92Z"></path><path class="b" d="M800.05,407.63c-4.91,18.67-12.06,36.72-21.07,53.72-13.44,25.42-31.25,48.34-52.18,67.77,44.76,24.37,91.78,45.21,140.69,62.19-8.85-73.4-30.47-142.86-62.55-206.12l-1.6,8.38c-.95,4.67-2.2,9.39-3.3,14.07Z"></path></g></g></svg> 